<svg width="30" height="30" viewBox="0 0 30 30" fill="none" xmlns="http://www.w3.org/2000/svg">
<path fill-rule="evenodd" clip-rule="evenodd" d="M7.68742 0H17.7174L26.2182 8.86058V26.0945C26.2182 28.2534 24.4715 30 22.3201 30H7.68742C5.52851 30 3.78189 28.2534 3.78189 26.0945V3.90553C3.78185 1.74662 5.52847 0 7.68742 0V0Z" fill="#E03303"/>
<path opacity="0.302" fill-rule="evenodd" clip-rule="evenodd" d="M17.7099 0V8.79311H26.2182L17.7099 0Z" fill="white"/>
<path d="M8.49701 21.4618V16.012H10.8133C11.3831 16.012 11.8403 16.1694 12.1852 16.4918C12.5225 16.8066 12.6949 17.2264 12.6949 17.7586C12.6949 18.2834 12.5225 18.7106 12.1852 19.0255C11.8403 19.3403 11.3831 19.4977 10.8133 19.4977H9.8838V21.4618H8.49701ZM9.88384 18.3134H10.656C10.8658 18.3134 11.0233 18.2684 11.1432 18.1709C11.2557 18.0735 11.3082 17.931 11.3082 17.7586C11.3082 17.5787 11.2557 17.4438 11.1432 17.3463C11.0233 17.2489 10.8659 17.1964 10.656 17.1964H9.88384V18.3134ZM13.2796 21.4618V16.012H15.596C16.1657 16.012 16.623 16.1694 16.9678 16.4918C17.3126 16.8066 17.4775 17.2264 17.4775 17.7586C17.4775 18.2834 17.3126 18.7106 16.9678 19.0255C16.623 19.3403 16.1657 19.4977 15.596 19.4977H14.6739V21.4618H13.2796ZM14.6739 18.3134H15.4385C15.6484 18.3134 15.8133 18.2684 15.9258 18.1709C16.0382 18.0735 16.0982 17.931 16.0982 17.7586C16.0982 17.5787 16.0383 17.4438 15.9258 17.3463C15.8133 17.2489 15.6485 17.1964 15.4385 17.1964H14.6739V18.3134ZM19.479 21.4618V17.1964H17.9273V16.012H22.4326V17.1964H20.8733V21.4618H19.479Z" fill="white"/>
</svg>
