<svg width="30" height="30" viewBox="0 0 30 30" fill="none" xmlns="http://www.w3.org/2000/svg">
<path d="M7.68402 0H17.7218L26.2187 8.86494V26.0973C26.2187 28.2529 24.4716 30 22.316 30H7.68402C5.52845 30 3.78137 28.2529 3.78137 26.0973V3.90265C3.78137 1.74711 5.52845 0 7.68402 0V0Z" fill="#0263D1"/>
<path opacity="0.302" fill-rule="evenodd" clip-rule="evenodd" d="M17.7097 0V8.79212H26.2187L17.7097 0Z" fill="white"/>
<path d="M7.40497 21.406V16.4397H9.16421C9.51604 16.4397 9.84366 16.4923 10.147 16.5894C10.4503 16.6905 10.7253 16.8361 10.972 17.0302C11.2187 17.2243 11.4128 17.4832 11.5544 17.8067C11.6959 18.1302 11.7687 18.5023 11.7687 18.9229C11.7687 19.3435 11.6959 19.7156 11.5544 20.0391C11.4128 20.3626 11.2187 20.6215 10.972 20.8156C10.7253 21.0097 10.4503 21.1553 10.147 21.2564C9.84366 21.3535 9.51608 21.406 9.16421 21.406H7.40497ZM8.64654 20.3263H9.01456C9.21273 20.3263 9.39877 20.302 9.56456 20.2575C9.73442 20.209 9.88808 20.1321 10.0337 20.031C10.1793 19.9299 10.2925 19.7843 10.3734 19.5942C10.4583 19.4082 10.4987 19.1817 10.4987 18.9229C10.4987 18.6641 10.4583 18.4376 10.3734 18.2475C10.2925 18.0615 10.1793 17.9159 10.0337 17.8148C9.88808 17.7096 9.73442 17.6369 9.56456 17.5883C9.39877 17.5438 9.21273 17.5195 9.01456 17.5195H8.64654V20.3263ZM14.7816 21.4627C14.0335 21.4627 13.4147 21.22 12.9254 20.7388C12.436 20.2575 12.1933 19.6509 12.1933 18.9229C12.1933 18.195 12.436 17.5883 12.9254 17.1071C13.4147 16.6258 14.0335 16.3832 14.7816 16.3832C15.5177 16.3832 16.1284 16.6259 16.6177 17.1071C17.103 17.5884 17.3457 18.195 17.3457 18.9229C17.3457 19.6509 17.103 20.2575 16.6177 20.7388C16.1284 21.22 15.5177 21.4627 14.7816 21.4627ZM13.8272 19.9704C14.0739 20.2454 14.3893 20.3829 14.7735 20.3829C15.1577 20.3829 15.4691 20.2454 15.7158 19.9704C15.9625 19.6913 16.0839 19.3435 16.0839 18.9229C16.0839 18.5023 15.9625 18.1545 15.7158 17.8754C15.4692 17.6004 15.1577 17.4629 14.7735 17.4629C14.3893 17.4629 14.0739 17.6004 13.8272 17.8754C13.5805 18.1545 13.4551 18.5023 13.4551 18.9229C13.4551 19.3435 13.5805 19.6913 13.8272 19.9704ZM20.2979 21.4627C19.574 21.4627 18.9714 21.2362 18.4942 20.7913C18.013 20.3424 17.7744 19.7196 17.7744 18.9229C17.7744 18.1302 18.0171 17.5074 18.5024 17.0585C18.9917 16.6096 19.5862 16.3831 20.298 16.3831C20.941 16.3831 21.4667 16.5408 21.8833 16.8603C22.2958 17.1758 22.5345 17.5964 22.5951 18.1221L21.3414 18.3769C21.2888 18.1019 21.1634 17.8795 20.9693 17.7137C20.7752 17.5478 20.5487 17.4629 20.2899 17.4629C19.934 17.4629 19.6387 17.5883 19.4001 17.8431C19.1615 18.1019 19.0402 18.4578 19.0402 18.9229C19.0402 19.388 19.1615 19.7438 19.3961 19.9986C19.6347 20.2575 19.9299 20.3828 20.2898 20.3828C20.5486 20.3828 20.7711 20.3101 20.9531 20.1645C21.1351 20.0189 21.2483 19.8248 21.2969 19.5821L22.5789 19.8733C22.4616 20.3748 22.2027 20.763 21.7983 21.042C21.398 21.3211 20.8965 21.4627 20.2979 21.4627Z" fill="white"/>
</svg>
