<svg width="30" height="30" viewBox="0 0 30 30" fill="none" xmlns="http://www.w3.org/2000/svg">
<path fill-rule="evenodd" clip-rule="evenodd" d="M7.68067 0H17.7208L26.2172 8.86861V26.0912C26.2172 28.2482 24.4763 30 22.3194 30H7.68067C5.53468 30 3.78287 28.2482 3.78287 26.0912V3.8978C3.78283 1.75181 5.53468 0 7.68067 0V0Z" fill="#00733B"/>
<path opacity="0.302" fill-rule="evenodd" clip-rule="evenodd" d="M17.7098 0V8.79197H26.2171L17.7098 0Z" fill="white"/>
<path d="M13.1113 21.8431H11.6551L10.6588 20.1679L9.6624 21.8431H8.19525L9.92519 18.9307L8.40331 16.4015H9.87042L10.6587 17.7153L11.4361 16.4015H12.9032L11.3923 18.9416L13.1113 21.8431ZM13.6259 21.8431V16.4015H15.0164V20.6606H17.3814V21.8431H13.6259V21.8431ZM19.6806 21.9088C19.1332 21.9088 18.6514 21.7336 18.2354 21.3942C17.8303 21.0657 17.6004 20.6497 17.5675 20.157L18.7609 19.8066C18.7938 20.0694 18.9033 20.2993 19.0894 20.4745C19.2865 20.6497 19.5055 20.7373 19.7464 20.7373C19.9434 20.7373 20.1077 20.6935 20.239 20.6059C20.3595 20.5183 20.4252 20.3979 20.4252 20.2555C20.4252 20.1351 20.3704 20.0365 20.2719 19.949C20.1733 19.8723 20.0419 19.8066 19.8887 19.7519C19.7354 19.6971 19.5493 19.6424 19.3631 19.5986C19.166 19.5439 18.9689 19.4782 18.7828 19.3906C18.5857 19.3139 18.4106 19.2154 18.2573 19.095C18.093 18.9854 17.9726 18.8212 17.874 18.6132C17.7755 18.4161 17.7208 18.1752 17.7208 17.9015C17.7208 17.4526 17.9069 17.0803 18.2901 16.7847C18.6733 16.4781 19.1332 16.3358 19.6696 16.3358C20.2061 16.3358 20.6769 16.4672 21.0711 16.719C21.4653 16.9818 21.7171 17.3212 21.8156 17.7373L20.5675 18.2628C20.5127 18.0329 20.4032 17.8468 20.2499 17.7044C20.0966 17.5731 19.8996 17.4964 19.6696 17.4964C19.4944 17.4964 19.3631 17.5402 19.2536 17.6059C19.155 17.6716 19.1113 17.7702 19.1113 17.8906C19.1113 18.0001 19.177 18.0986 19.3083 18.1753C19.4397 18.241 19.6149 18.2957 19.812 18.3286C20.009 18.3614 20.228 18.4162 20.4579 18.4928C20.6988 18.5804 20.9069 18.668 21.1149 18.7884C21.3119 18.8979 21.4762 19.084 21.6076 19.3249C21.7499 19.5768 21.8156 19.8724 21.8156 20.2118C21.8156 20.7154 21.6185 21.1315 21.2243 21.438C20.8302 21.7446 20.3157 21.9088 19.6806 21.9088Z" fill="white"/>
</svg>
