<svg width="30" height="30" viewBox="0 0 30 30" fill="none" xmlns="http://www.w3.org/2000/svg">
<path fill-rule="evenodd" clip-rule="evenodd" d="M7.68215 0H17.716L26.2189 8.86259V26.099C26.2189 28.2478 24.4666 30 22.3178 30H7.68215C5.52415 30 3.78113 28.2478 3.78113 26.099V3.90102C3.78113 1.74302 5.52415 0 7.68215 0V0Z" fill="#9900CC"/>
<path opacity="0.302" fill-rule="evenodd" clip-rule="evenodd" d="M17.7067 0V8.78882H26.2188L17.7067 0Z" fill="white"/>
<path d="M17.6791 19.7172C17.9649 19.2376 18.1586 18.629 18.1955 18.0295C18.214 17.6422 18.131 17.2364 17.9465 16.8583C17.6514 16.2589 17.1534 15.9269 16.6646 15.5948C16.3049 15.3551 15.9637 15.1245 15.7239 14.8017L15.6778 14.7464C15.5395 14.5527 15.3735 14.3314 15.3458 14.1469C15.3273 13.9625 15.1521 13.8334 14.9769 13.8426C14.7832 13.8611 14.6449 14.0086 14.6449 14.2023V20.5288C14.3498 20.3443 13.9809 20.2336 13.5751 20.2336C12.5975 20.2336 11.8044 20.87 11.8044 21.6539C11.8044 22.4377 12.5975 23.0741 13.5751 23.0741C14.5527 23.0741 15.355 22.4377 15.355 21.6539V17.5131C15.8899 17.7252 16.7568 18.2416 16.9966 19.4497C16.9505 19.5143 16.9135 19.588 16.8582 19.6434C16.7291 19.791 16.7476 20.0123 16.8951 20.1506C17.0427 20.2797 17.264 20.2613 17.3931 20.1137C17.4853 20.003 17.5776 19.8831 17.6513 19.7448C17.6606 19.7356 17.6698 19.7264 17.6791 19.7172Z" fill="white"/>
</svg>
