<svg width="20" height="20" viewBox="0 0 20 20" fill="none" xmlns="http://www.w3.org/2000/svg">
<path d="M10.05 14.375C9.70832 14.375 9.42499 14.0917 9.42499 13.75V9.58334C9.42499 9.24168 9.70832 8.95834 10.05 8.95834C10.3917 8.95834 10.675 9.24168 10.675 9.58334V13.75C10.675 14.0917 10.3917 14.375 10.05 14.375Z" fill="#FAFAFA"/>
<path d="M12.0834 12.2917H7.91669C7.57502 12.2917 7.29169 12.0083 7.29169 11.6667C7.29169 11.325 7.57502 11.0417 7.91669 11.0417H12.0834C12.425 11.0417 12.7084 11.325 12.7084 11.6667C12.7084 12.0083 12.425 12.2917 12.0834 12.2917Z" fill="#FAFAFA"/>
<path d="M14.1667 18.9583H5.83335C2.15835 18.9583 1.04169 17.8417 1.04169 14.1667V5.83332C1.04169 2.15832 2.15835 1.04166 5.83335 1.04166H7.08335C8.54169 1.04166 9.00002 1.51666 9.58335 2.29166L10.8334 3.95832C11.1084 4.32499 11.15 4.37499 11.6667 4.37499H14.1667C17.8417 4.37499 18.9584 5.49166 18.9584 9.16666V14.1667C18.9584 17.8417 17.8417 18.9583 14.1667 18.9583ZM5.83335 2.29166C2.85835 2.29166 2.29169 2.85832 2.29169 5.83332V14.1667C2.29169 17.1417 2.85835 17.7083 5.83335 17.7083H14.1667C17.1417 17.7083 17.7084 17.1417 17.7084 14.1667V9.16666C17.7084 6.19166 17.1417 5.62499 14.1667 5.62499H11.6667C10.6 5.62499 10.25 5.25832 9.83335 4.70832L8.58335 3.04166C8.15002 2.46666 8.02502 2.29166 7.08335 2.29166H5.83335Z" fill="#FAFAFA"/>
</svg>
