<svg width="32" height="32" viewBox="0 0 32 32" fill="none" xmlns="http://www.w3.org/2000/svg">
<path d="M26 11.25H20C19.59 11.25 19.25 10.91 19.25 10.5C19.25 10.09 19.59 9.75 20 9.75H26C26.41 9.75 26.75 10.09 26.75 10.5C26.75 10.91 26.41 11.25 26 11.25Z" fill="#939393"/>
<path d="M10 11.25H6C5.59 11.25 5.25 10.91 5.25 10.5C5.25 10.09 5.59 9.75 6 9.75H10C10.41 9.75 10.75 10.09 10.75 10.5C10.75 10.91 10.41 11.25 10 11.25Z" fill="#939393"/>
<path d="M14 14.75C11.66 14.75 9.75 12.84 9.75 10.5C9.75 8.16 11.66 6.25 14 6.25C16.34 6.25 18.25 8.16 18.25 10.5C18.25 12.84 16.34 14.75 14 14.75ZM14 7.75C12.48 7.75 11.25 8.98 11.25 10.5C11.25 12.02 12.48 13.25 14 13.25C15.52 13.25 16.75 12.02 16.75 10.5C16.75 8.98 15.52 7.75 14 7.75Z" fill="#939393"/>
<path d="M26 22.25H22C21.59 22.25 21.25 21.91 21.25 21.5C21.25 21.09 21.59 20.75 22 20.75H26C26.41 20.75 26.75 21.09 26.75 21.5C26.75 21.91 26.41 22.25 26 22.25Z" fill="#939393"/>
<path d="M12 22.25H6C5.59 22.25 5.25 21.91 5.25 21.5C5.25 21.09 5.59 20.75 6 20.75H12C12.41 20.75 12.75 21.09 12.75 21.5C12.75 21.91 12.41 22.25 12 22.25Z" fill="#939393"/>
<path d="M18 25.75C15.66 25.75 13.75 23.84 13.75 21.5C13.75 19.16 15.66 17.25 18 17.25C20.34 17.25 22.25 19.16 22.25 21.5C22.25 23.84 20.34 25.75 18 25.75ZM18 18.75C16.48 18.75 15.25 19.98 15.25 21.5C15.25 23.02 16.48 24.25 18 24.25C19.52 24.25 20.75 23.02 20.75 21.5C20.75 19.98 19.52 18.75 18 18.75Z" fill="#939393"/>
</svg>
